<?xml version="1.0" standalone="no"?>
<!DOCTYPE svg PUBLIC "-//W3C//DTD SVG 20010904//EN"
 "http://www.w3.org/TR/2001/REC-SVG-20010904/DTD/svg10.dtd">
<svg version="1.0" xmlns="http://www.w3.org/2000/svg"
 width="200.000000pt" height="200.000000pt" viewBox="0 0 200.000000 200.000000"
 preserveAspectRatio="xMidYMid meet">

<g transform="translate(0.000000,200.000000) scale(0.100000,-0.100000)"
fill="#000000" stroke="none">
<path d="M600 1788 c-19 -5 -48 -22 -64 -36 -55 -52 -56 -60 -56 -454 0 -200
5 -380 9 -402 12 -48 64 -103 111 -117 22 -7 173 -9 416 -7 l380 3 41 27 c73
48 73 47 73 485 0 383 -1 389 -23 428 -14 26 -37 48 -67 63 -44 22 -50 22
-415 21 -210 0 -385 -5 -405 -11z m533 -97 c65 -28 141 -102 174 -170 24 -48
28 -68 28 -146 0 -71 -5 -100 -22 -137 -64 -139 -230 -228 -375 -200 -33 7
-49 6 -52 -2 -2 -6 -2 28 1 77 4 58 2 87 -5 87 -6 0 -13 17 -15 38 -2 20 -2 2
1 -40 5 -97 -13 -106 -22 -10 -7 77 6 184 23 190 6 2 11 9 11 14 0 6 -3 8 -7
4 -4 -3 -12 6 -19 21 -11 28 -11 27 -19 -21 -4 -27 -5 -105 -1 -172 13 -226
-6 -314 -67 -314 -13 0 -33 -10 -46 -21 -18 -17 -27 -19 -44 -11 -12 6 -16 11
-8 11 11 1 11 4 0 19 -11 14 -11 15 1 5 8 -7 23 -13 35 -13 16 0 14 4 -12 20
-43 26 -45 44 -41 311 3 217 4 226 29 279 47 101 125 168 228 197 61 17 164
10 224 -16z m-286 -323 c-3 -7 -5 -2 -5 12 0 14 2 19 5 13 2 -7 2 -19 0 -25z
m43 -370 c0 -4 -6 -13 -13 -20 -16 -16 -37 -53 -37 -65 1 -4 10 3 20 16 11 13
20 19 20 13 0 -21 -71 -72 -100 -72 -15 0 -35 -3 -44 -6 -9 -3 -16 -2 -16 4 0
5 18 17 40 26 48 19 50 19 50 5 0 -5 -5 -7 -12 -3 -7 4 -8 3 -4 -4 10 -17 34
-3 29 17 -2 10 2 25 10 33 10 10 13 27 10 57 l-5 44 26 -19 c14 -11 26 -22 26
-26z"/>
<path d="M988 1533 c6 -2 18 -2 25 0 6 3 1 5 -13 5 -14 0 -19 -2 -12 -5z"/>
<path d="M916 1511 c-13 -14 -14 -20 -4 -23 8 -3 4 -9 -11 -17 -22 -12 -23
-12 -17 5 7 18 6 18 -11 2 -13 -14 -14 -21 -5 -30 9 -9 19 -5 42 17 22 21 27
31 18 37 -9 5 -6 8 9 8 24 0 43 -22 25 -28 -6 -2 -22 -12 -34 -23 l-23 -19 28
10 c19 7 26 7 22 0 -3 -6 -2 -10 4 -10 13 0 24 41 19 67 -5 25 -41 28 -62 4z"/>
<path d="M1030 1513 c0 -15 -2 -16 -10 -3 -5 8 -10 10 -10 4 0 -6 8 -18 18
-25 9 -7 14 -9 9 -4 -4 4 0 17 10 27 15 17 15 18 0 18 -10 0 -17 -8 -17 -17z"/>
<path d="M1063 1506 c-9 -11 -7 -13 13 -13 20 0 22 2 13 13 -13 16 -11 16 -26
0z"/>
<path d="M1063 1473 c-16 -3 -23 -11 -23 -26 0 -15 3 -18 8 -9 5 7 15 11 23 9
8 -2 10 -2 6 1 -4 2 -3 10 4 18 6 8 10 13 8 13 -2 -1 -14 -4 -26 -6z"/>
<path d="M1113 1462 c-8 -5 -6 -13 7 -30 21 -26 36 -13 20 18 -12 23 -11 22
-27 12z"/>
<path d="M990 1400 c0 -22 5 -40 10 -40 6 0 10 18 10 40 0 22 -4 40 -10 40 -5
0 -10 -18 -10 -40z"/>
<path d="M1142 1386 c-14 -32 -16 -76 -2 -76 11 0 24 59 18 86 -2 14 -6 12
-16 -10z"/>
<path d="M1097 1363 c-22 -6 -17 -27 6 -31 12 -2 17 3 17 17 0 12 -1 20 -2 20
-2 -1 -11 -3 -21 -6z"/>
<path d="M872 1340 c0 -14 2 -19 5 -12 2 6 2 18 0 25 -3 6 -5 1 -5 -13z"/>
<path d="M1051 1321 c-12 -8 -11 -54 2 -67 13 -13 34 16 29 41 -5 30 -13 37
-31 26z"/>
<path d="M883 1259 c-1 -11 3 -16 12 -13 7 3 16 1 20 -5 3 -6 12 -11 18 -11 7
0 4 7 -7 15 -10 7 -15 18 -12 24 4 5 -2 9 -12 8 -10 0 -19 -9 -19 -18z"/>
<path d="M960 1270 c-14 -4 -19 -8 -12 -9 7 -1 11 -5 7 -10 -3 -5 0 -13 6 -16
12 -8 51 29 42 39 -7 7 -9 7 -43 -4z"/>
<path d="M1074 1245 c-10 -8 -14 -15 -8 -15 6 0 17 7 24 15 16 19 9 19 -16 0z"/>
<path d="M985 1220 c-3 -5 3 -10 15 -10 12 0 18 5 15 10 -3 6 -10 10 -15 10
-5 0 -12 -4 -15 -10z"/>
<path d="M1080 472 c0 -152 -1 -159 -22 -179 -13 -11 -31 -23 -41 -26 -13 -5
-17 -15 -15 -34 2 -23 7 -27 28 -25 37 5 83 37 103 70 14 25 17 56 17 191 l0
161 -35 0 -35 0 0 -158z"/>
<path d="M1610 584 c0 -27 -4 -43 -10 -39 -6 3 -15 -6 -20 -20 -13 -35 -13
-35 10 -35 17 0 20 -7 20 -44 0 -80 31 -126 86 -126 12 0 40 48 32 55 -2 1
-13 8 -25 14 -19 9 -23 20 -23 56 0 32 4 45 14 45 14 0 26 21 26 46 0 8 -9 14
-20 14 -17 0 -20 7 -20 40 0 39 -1 40 -35 40 -35 0 -35 0 -35 -46z"/>
<path d="M55 611 c47 -5 55 -8 35 -13 -14 -4 -37 -8 -52 -8 -15 0 -30 -5 -33
-11 -5 -7 11 -10 47 -8 29 1 62 -2 72 -6 14 -6 17 -5 12 3 -4 7 -15 12 -24 13
-10 0 -5 5 12 11 43 16 13 28 -64 26 l-65 -1 60 -6z"/>
<path d="M157 597 c-3 -8 1 -14 9 -14 16 0 19 13 5 21 -5 3 -11 0 -14 -7z"/>
<path d="M185 568 c-9 -22 4 -43 17 -30 7 7 7 16 0 29 -10 17 -11 17 -17 1z"/>
<path d="M152 545 c-7 -15 -8 -27 -2 -30 6 -4 10 -11 10 -16 0 -6 -4 -8 -9 -5
-14 9 -41 -4 -41 -19 0 -7 6 -16 13 -18 6 -3 0 -6 -15 -6 -16 -1 -28 -6 -28
-12 0 -11 21 -7 77 16 31 13 60 51 49 63 -3 3 -6 0 -6 -7 0 -7 -5 -9 -12 -5
-8 5 -9 2 -5 -9 4 -10 2 -17 -5 -17 -6 0 -8 11 -4 30 4 21 2 29 -5 24 -7 -4
-9 1 -4 15 9 29 1 27 -13 -4z m2 -61 c16 -6 12 -24 -5 -24 -6 0 -8 4 -5 9 4 5
0 12 -6 14 -7 3 -10 6 -6 6 3 1 13 -2 22 -5z"/>
<path d="M10 551 c12 -8 13 -14 4 -28 -9 -14 -8 -22 4 -32 12 -12 17 -11 33
10 10 13 18 31 18 39 0 10 -3 8 -8 -5 -8 -19 -9 -18 -13 5 l-5 25 -2 -27 c0
-15 -5 -29 -10 -33 -6 -3 -9 7 -8 21 1 17 -4 29 -13 31 -13 4 -13 3 0 -6z"/>
<path d="M304 542 c-29 -4 -64 -43 -70 -76 -6 -37 13 -24 21 14 7 33 38 55 62
45 13 -4 9 -10 -17 -24 -19 -10 -36 -24 -38 -32 -3 -11 -1 -11 7 1 6 8 11 11
11 6 0 -5 8 -2 18 7 10 10 21 14 24 11 4 -3 9 4 13 16 8 26 -2 37 -31 32z"/>
<path d="M445 541 c-3 -6 1 -11 9 -11 9 0 16 -7 16 -15 0 -19 -14 -19 -34 1
-16 15 -41 10 -31 -7 3 -5 0 -6 -8 -4 -14 6 -45 -40 -34 -52 4 -3 7 1 7 9 0
21 29 32 36 13 4 -8 10 -15 16 -15 5 0 7 4 4 9 -6 10 49 33 58 24 3 -3 4 8 3
23 -2 29 -29 45 -42 25z"/>
<path d="M692 539 c-12 -5 -34 -20 -49 -33 -25 -23 -25 -25 -5 -19 12 3 22 9
22 14 0 12 37 30 67 34 18 2 23 -1 18 -13 -4 -12 -3 -12 9 -3 10 8 16 9 21 1
3 -5 1 -10 -4 -10 -6 0 -11 -4 -11 -10 0 -16 17 -11 24 7 4 9 2 21 -4 27 -13
13 -59 16 -88 5z"/>
<path d="M901 541 c-9 -6 -10 -11 -2 -15 6 -4 18 0 27 8 12 12 12 16 2 16 -7
0 -19 -4 -27 -9z"/>
<path d="M1421 524 c-37 -48 -22 -86 44 -108 22 -8 41 -18 43 -24 5 -16 -32
-24 -61 -13 -19 7 -28 6 -37 -4 -19 -23 -4 -43 35 -51 79 -14 140 33 120 93
-8 20 -22 32 -54 43 -46 16 -52 35 -10 35 14 0 34 6 43 14 16 14 16 15 -6 27
-41 23 -94 17 -117 -12z"/>
<path d="M1784 516 c-76 -76 -23 -191 88 -191 58 0 98 27 117 81 12 36 12 44
-4 77 -22 46 -59 67 -121 67 -39 0 -51 -5 -80 -34z m136 -45 c17 -32 11 -60
-15 -77 -54 -35 -116 18 -81 71 21 32 80 36 96 6z"/>
<path d="M960 531 c0 -5 -9 -11 -20 -14 -11 -3 -20 -10 -20 -16 0 -7 10 -5 25
5 23 15 27 15 50 0 14 -9 25 -12 25 -6 0 5 -13 16 -30 25 -16 9 -30 11 -30 6z"/>
<path d="M1190 461 c0 -95 4 -107 41 -126 45 -24 87 -19 120 14 27 28 29 34
29 110 l0 81 -35 0 -34 0 -3 -77 c-3 -67 -6 -78 -22 -81 -27 -6 -36 15 -36 91
l0 67 -30 0 -30 0 0 -79z"/>
<path d="M501 523 c0 -5 5 -17 10 -28 9 -19 9 -18 5 3 -5 25 11 30 20 7 4 -9
-4 -25 -20 -40 -27 -25 -42 -33 -32 -17 3 5 -5 7 -17 6 -12 -1 -25 -3 -29 -3
-5 -1 -8 -5 -8 -10 0 -4 22 -9 49 -9 44 -1 50 1 53 21 2 12 9 21 16 19 8 -1
11 2 7 8 -3 5 0 10 7 10 16 1 -32 39 -49 40 -7 0 -13 -3 -12 -7z"/>
<path d="M692 510 c-12 -5 -25 -16 -28 -25 -3 -8 -10 -13 -14 -10 -5 3 -6 -4
-3 -15 3 -12 0 -20 -6 -20 -7 0 -10 4 -6 9 3 5 1 12 -4 15 -16 10 -23 -50 -9
-73 7 -12 17 -21 22 -21 5 0 1 9 -9 20 -14 15 -15 20 -4 20 11 0 11 2 -1 10
-8 5 -10 10 -4 10 7 0 19 -11 28 -25 10 -14 28 -31 42 -37 13 -6 27 -22 31
-36 3 -13 8 -19 12 -14 3 5 15 12 26 15 18 4 18 5 -3 6 -12 0 -38 16 -57 35
-18 19 -36 32 -39 29 -3 -3 -4 9 -3 28 2 34 29 69 54 69 7 0 13 5 13 10 0 12
-7 12 -38 0z"/>
<path d="M860 509 c12 -8 10 -10 -8 -6 -13 3 -21 3 -18 0 3 -3 -1 -11 -8 -18
-14 -15 -20 -91 -8 -99 5 -3 7 9 6 27 -2 18 -1 24 2 15 3 -10 13 -18 22 -18
15 0 15 -2 2 -10 -10 -6 -11 -10 -2 -10 6 0 12 -5 12 -11 0 -5 -4 -8 -9 -4 -5
3 -12 2 -15 -3 -2 -4 4 -13 14 -20 16 -9 18 -9 14 2 -7 19 8 27 26 14 12 -8
11 -8 -5 -3 -14 4 -17 3 -10 -4 7 -7 21 -7 40 -2 22 7 24 10 9 10 -29 1 -64
38 -64 68 0 21 -4 24 -21 20 -13 -3 -19 -1 -16 6 3 7 10 11 16 9 7 -1 10 2 6
8 -3 6 4 10 17 10 18 0 20 -2 8 -10 -8 -5 -10 -10 -4 -10 6 0 18 8 25 17 12
14 12 16 0 8 -10 -6 -13 -4 -9 6 4 10 -1 15 -15 17 -18 1 -19 -1 -7 -9z"/>
<path d="M962 503 c-6 -3 -10 -9 -7 -13 3 -5 13 -6 22 -3 12 5 14 3 8 -7 -5
-9 -4 -11 4 -6 9 6 10 0 6 -21 -5 -19 -4 -24 3 -15 7 11 11 8 15 -10 10 -35 8
-45 -9 -62 -17 -18 -39 -22 -29 -6 3 6 1 10 -5 10 -7 0 -9 -7 -6 -16 5 -13 1
-15 -18 -12 -18 4 -23 1 -19 -9 7 -18 38 -8 81 24 26 20 32 30 27 47 -15 49
-17 66 -6 66 6 0 11 5 11 11 0 6 -6 9 -14 6 -7 -3 -22 0 -32 7 -11 7 -25 11
-32 9z"/>
<path d="M57 486 c-3 -8 -3 -24 0 -36 4 -16 8 -18 14 -8 12 19 11 30 -2 22 -8
-4 -9 0 -4 15 7 23 0 29 -8 7z"/>
<path d="M570 460 c0 -13 -5 -18 -15 -14 -8 4 -15 1 -15 -5 0 -6 11 -11 24
-11 19 0 22 4 18 25 -5 30 -12 33 -12 5z"/>
<path d="M1041 434 c0 -11 3 -14 6 -6 3 7 2 16 -1 19 -3 4 -6 -2 -5 -13z"/>
<path d="M10 417 c0 -14 5 -29 10 -32 7 -4 8 3 4 22 -9 38 -14 42 -14 10z"/>
<path d="M230 377 c0 -52 2 -57 15 -43 18 18 20 52 3 59 -7 3 -3 6 9 6 16 1
21 -3 17 -14 -4 -8 -1 -15 5 -15 6 0 11 6 11 13 0 15 -20 46 -20 32 0 -5 -5
-3 -10 5 -9 13 -10 13 -10 0 0 -13 -1 -13 -10 0 -7 11 -10 -2 -10 -43z"/>
<path d="M40 411 c0 -6 4 -11 9 -11 6 0 12 -19 14 -42 l4 -43 1 41 c1 27 -3
46 -13 54 -10 9 -15 9 -15 1z"/>
<path d="M360 398 c0 -5 7 -8 15 -8 8 0 12 -6 9 -14 -11 -29 95 -72 111 -46 4
6 11 8 16 5 5 -4 9 2 9 12 0 15 2 16 10 3 5 -8 10 -10 10 -4 0 22 -28 36 -47
24 -15 -9 -14 -10 7 -4 l25 6 -22 -22 c-20 -21 -23 -22 -38 -6 -12 11 -13 16
-3 16 7 0 1 8 -12 17 -14 9 -27 20 -30 23 -7 8 -60 6 -60 -2z m89 -50 c18 -24
0 -23 -32 2 -15 12 -24 27 -21 35 6 15 21 4 53 -37z"/>
<path d="M970 390 c-12 -8 -11 -10 7 -10 12 0 25 5 28 10 8 13 -15 13 -35 0z"/>
<path d="M750 370 c-8 -5 -11 -12 -8 -16 4 -3 14 1 23 10 18 17 9 21 -15 6z"/>
<path d="M22 345 c0 -16 2 -22 5 -12 2 9 2 23 0 30 -3 6 -5 -1 -5 -18z"/>
<path d="M275 351 c-3 -5 -1 -12 5 -16 5 -3 10 1 10 9 0 18 -6 21 -15 7z"/>
<path d="M654 351 c3 -5 19 -14 35 -19 25 -9 29 -8 24 4 -3 7 -9 12 -13 9 -5
-3 -11 -1 -15 5 -3 5 -13 10 -21 10 -8 0 -13 -4 -10 -9z"/>
<path d="M880 336 c0 -2 7 -6 15 -10 8 -3 15 -1 15 4 0 6 -7 10 -15 10 -8 0
-15 -2 -15 -4z"/>
<path d="M718 293 c7 -3 16 -2 19 1 4 3 -2 6 -13 5 -11 0 -14 -3 -6 -6z"/>
</g>
</svg>
